<?xml version="1.0" encoding="utf-8"?>
<!-- Generator: Adobe Illustrator 19.0.0, SVG Export Plug-In . SVG Version: 6.00 Build 0)  -->
<svg version="1.1" id="Capa_1" xmlns="http://www.w3.org/2000/svg" xmlns:xlink="http://www.w3.org/1999/xlink" x="0px" y="0px"
	 viewBox="6 3 60 60" style="enable-background:new 6 3 60 60;" xml:space="preserve">
<g>
	<path d="M66,18h-4v-2v-6V6c0-1.6-1.3-3-3-3h-4c-1.6,0-3,1.3-3,3v4v6v2H6v33h46v2.3l4,7V62c0,0.6,0.4,1,1,1s1-0.4,1-1v-1.7l4-7V51h4
		V18z M60,14h-6v-2h6V14z M54,6c0-0.5,0.4-1,1-1h4c0.5,0,1,0.4,1,1v4h-6V6z M8,49V20h44v29H8z M57,58l-2.3-4h4.6L57,58z M60,52h-6
		v-1V18v-2h6v2v33V52z M64,49h-2V20h2V49z"/>
	<path d="M45,29h-3c-0.6,0-1,0.4-1,1s0.4,1,1,1h3c0.6,0,1-0.4,1-1S45.6,29,45,29z"/>
	<path d="M27,27h3c0.6,0,1-0.4,1-1s-0.4-1-1-1h-3c-0.6,0-1,0.4-1,1S26.4,27,27,27z"/>
	<path d="M45,25h-7c-0.6,0-1,0.4-1,1s0.4,1,1,1h7c0.6,0,1-0.4,1-1S45.6,25,45,25z"/>
	<path d="M34,27c0.3,0,0.5-0.1,0.7-0.3c0.2-0.2,0.3-0.4,0.3-0.7s-0.1-0.5-0.3-0.7c-0.4-0.4-1-0.4-1.4,0C33.1,25.5,33,25.7,33,26
		s0.1,0.5,0.3,0.7C33.5,26.9,33.7,27,34,27z"/>
	<path d="M30,30c0,0.6,0.4,1,1,1h7c0.6,0,1-0.4,1-1s-0.4-1-1-1h-7C30.4,29,30,29.4,30,30z"/>
	<path d="M27,31c0.3,0,0.5-0.1,0.7-0.3c0.2-0.2,0.3-0.4,0.3-0.7c0-0.3-0.1-0.5-0.3-0.7c-0.4-0.4-1-0.4-1.4,0
		C26.1,29.5,26,29.7,26,30c0,0.3,0.1,0.5,0.3,0.7C26.5,30.9,26.7,31,27,31z"/>
	<path d="M30.1,36.4c-2.2,1.1-2.9,3.3-3.2,5.6c-0.4-0.3-0.8-0.7-1.2-1c-1-0.8-2.4,0.6-1.4,1.4c0.9,0.8,1.9,1.6,2.8,2.4
		c0.7,0.6,1.7,0.2,1.7-0.7c0.1-2.2,0.2-4.7,2.3-5.9C32.3,37.5,31.3,35.8,30.1,36.4z"/>
	<path d="M36.8,40.4c-1.4,0.3-3,2.1-3.9,0.1c-0.6-1.2-2.3-0.1-1.7,1c0.5,1,1.5,1.8,2.7,1.9c0.6,0.1,1.1,0,1.7-0.2
		c0.4-0.2,1.9-1.3,2.3-0.7c0.6,1.1,2.4,0.1,1.7-1C38.9,40.5,37.9,40.1,36.8,40.4z"/>
	<path d="M18.3,35.3c2.8,0,5.1-2.3,5.1-5.1S21.1,25,18.3,25c0,0,0,0,0,0H14c0,0,0,0,0,0c-0.5,0-0.9,0.4-0.9,0.9v0v8.5v2.7h-0.9
		c-0.5,0-0.9,0.4-0.9,0.9s0.4,0.9,0.9,0.9h0.9v5.1c0,0.5,0.4,0.9,0.9,0.9c0.5,0,0.9-0.4,0.9-0.9v-5.1h3.3c0.5,0,0.9-0.4,0.9-0.9
		s-0.4-0.9-0.9-0.9h-3.3v-1.8L18.3,35.3L18.3,35.3z M18.3,26.8C18.3,26.8,18.3,26.8,18.3,26.8c1.9,0,3.3,1.5,3.3,3.3
		c0,1.8-1.5,3.3-3.3,3.3h-3.3v-6.7H18.3z"/>
</g>
</svg>
