<?xml version="1.0" encoding="utf-8"?>
<!-- Generator: Adobe Illustrator 19.0.0, SVG Export Plug-In . SVG Version: 6.00 Build 0)  -->
<svg version="1.1" xmlns="http://www.w3.org/2000/svg" xmlns:xlink="http://www.w3.org/1999/xlink" x="0px" y="0px"
	 viewBox="0 0 996.2 135.2" enable-background="new 0 0 996.2 135.2" xml:space="preserve">
<g id="cdr_x5F_layer1">
</g>
<g id="cdr_x5F_layer2">
	<path fill-rule="evenodd" clip-rule="evenodd" d="M969.2,37.7l17.2-2.3c1.2,0,1.9,0.7,2.3,2.2c0.1,0.4,0.2,0.9,0.3,1.6
		c0.1,0.7,0.1,1.4,0.1,2.2c0,0.8,0,1.6,0,2.4c0,0.8,0,1.4,0,2c0,2.9-0.3,4.8-0.9,5.6s-1.4,1.3-2.6,1.3c-2.2-0.5-4-1-5.5-1.3
		c-1.5-0.3-2.8-0.5-3.9-0.7c-1.1-0.2-2.1-0.2-3-0.3c-0.9,0-1.8,0-2.7,0h-1.3v1.3c0,1,0,1.9,0,2.8c0,0.9,0.1,1.9,0.3,3
		c0.2,1.1,0.4,2.5,0.7,4c0.3,1.6,0.7,3.4,1.2,5.6c0,1.2-0.4,2.1-1.3,2.7c-0.9,0.6-2.7,0.9-5.5,0.9c-0.5,0-1.2,0-1.9,0
		c-0.8,0-1.5,0-2.3,0c-0.8,0-1.5-0.1-2.2-0.1c-0.7-0.1-1.2-0.1-1.5-0.2c-1.4-0.4-2.1-1.2-2.1-2.4l2.2-17.6h-1.3c-0.9,0-1.8,0-2.7,0
		c-0.9,0-1.9,0.1-3,0.3c-1.1,0.1-2.4,0.4-3.9,0.7c-1.5,0.3-3.4,0.7-5.5,1.3c-1.2,0-2-0.4-2.6-1.3c-0.6-0.9-0.9-2.8-0.9-5.6
		c0-0.5,0-1.2,0-2c0-0.8,0-1.6,0-2.4c0-0.8,0.1-1.6,0.1-2.2c0.1-0.7,0.1-1.2,0.2-1.6c0.4-1.4,1.2-2.2,2.3-2.2l17.2,2.3l-2.2-17.6
		c0-1.2,0.7-2,2.1-2.4c0.3-0.1,0.9-0.2,1.5-0.3c0.7-0.1,1.4-0.1,2.2-0.1c0.8,0,1.6,0,2.3,0c0.8,0,1.4,0,1.9,0c2.8,0,4.7,0.3,5.5,0.9
		s1.3,1.5,1.3,2.7c-0.5,2.2-0.9,4.1-1.2,5.6c-0.3,1.6-0.5,2.9-0.7,4c-0.1,1.1-0.2,2.1-0.3,3c0,0.9,0,1.8,0,2.8V37.7z M929.8,47v-1.2
		v-0.3v-1.4l0-0.3l0-0.3v-0.3v-0.3v-0.3l0-0.3v-0.3l0-0.3v-0.3l0-0.3v-0.3l0-0.3l0-0.3l0-0.3l0-0.3l0-0.3l0-0.4l0-0.4l0-0.3l0.1-0.4
		l0-0.4l0.1-0.4l0.1-0.4l0.1-0.4l0.1-0.4l0.3-1.1l0.6-1.3l0.8-1.3l1.1-1.2l1.4-1.1l1.6-0.8l1.6-0.4l1.7-0.1l8.9,1.2l-1.2-9.1
		l0.1-1.8l0.4-1.7l0.8-1.6l1-1.4l1.2-1.1l1.3-0.8l1.3-0.6l1-0.4l0.4-0.1l0.4-0.1l0.4-0.1l0.4-0.1l0.4-0.1l0.3,0l0.3,0l0.4,0l0.3,0
		l0.3,0l0.3,0l0.3,0l0.3,0l0.3,0l0.3,0l0.3,0l0.3,0l0.3,0h0.3h0.3l0.3,0h0.3h0.3h0.3h2l1.2,0l1.2,0.1l1.1,0.1l1.1,0.1l1.1,0.2
		l1.2,0.3l1.2,0.5l1.2,0.7L975,13l0.9,0.9l0.8,1l0.7,1.2l0.5,1.2l0.3,1.2l0.2,1.2l0.1,1.8l-0.4,1.8l-0.2,0.8l-0.2,0.7l-0.1,0.7
		l-0.1,0.6l-0.1,0.6l-0.1,0.6l-0.1,0.5l-0.1,0.5l-0.1,0.5l-0.1,0.5l0,0.1l9.4-1.2l1.8,0.1l1.6,0.4l1.6,0.8l1.4,1.1l1.1,1.2l0.8,1.3
		l0.6,1.3l0.3,1l0.1,0.4l0.1,0.4l0.1,0.4l0.1,0.4l0.1,0.4l0,0.4l0,0.4l0,0.3l0,0.3l0,0.3l0,0.3l0,0.3l0,0.3l0,0.3l0,0.3l0,0.3l0,0.3
		l0,0.3v0.3v0.3l0,0.3v0.3v0.3v2.3l0,1.2l0,1.2l-0.1,1.1l-0.1,1.1l-0.2,1.1l-0.3,1.2l-0.5,1.3l-0.7,1.3l-0.8,1.1l-0.9,1l-1,0.8
		l-1.1,0.7l-1.2,0.5l-1.2,0.3l-1.2,0.2L985,60l-1.7-0.4l-0.7-0.2l-0.7-0.2l-0.7-0.1l-0.6-0.1l-0.6-0.1l-0.6-0.1l-0.5-0.1l-0.5-0.1
		l-0.5-0.1l-0.5-0.1l-0.4-0.1l-0.2,0l0,0.2l0.1,0.5l0.1,0.5l0.1,0.5l0.1,0.5l0.1,0.5l0.1,0.6l0.1,0.6l0.1,0.7l0.1,0.7l0.2,0.7
		l0.2,0.8l0.4,1.8l-0.1,1.8l-0.2,1.2l-0.3,1.2l-0.5,1.2l-0.7,1.2l-0.8,1l-0.9,0.9l-1.1,0.8l-1.2,0.7l-1.2,0.5l-1.2,0.3l-1.1,0.2
		l-1.1,0.2L967,78l-1.2,0.1l-1.2,0h-0.2h-2.1H962l-0.3,0h-0.3h-0.3l-0.3,0l-0.3,0h-0.3l-0.3,0l-0.3,0l-0.3,0l-0.3,0l-0.3,0l-0.3,0
		l-0.3,0l-0.3,0l-0.3,0l-0.4,0l-0.4-0.1l-0.4-0.1l-0.4-0.1l-0.4-0.1l-0.4-0.1l-0.4-0.1l-1-0.3l-1.2-0.6l-1.3-0.9l-1.2-1.1l-1-1.4
		l-0.8-1.6l-0.4-1.7l-0.1-1.8l1.2-9.7l-0.1,0l-0.5,0.1l-0.5,0.1l-0.5,0.1l-0.5,0.1l-0.6,0.1l-0.6,0.1l-0.6,0.1l-0.7,0.1l-0.7,0.2
		l-0.7,0.2l-1.7,0.4l-1.8-0.1l-1.2-0.2l-1.2-0.3l-1.2-0.5l-1.1-0.7l-1-0.8l-0.9-0.9l-0.8-1.1L931,54l-0.5-1.3l-0.3-1.2l-0.2-1.1
		l-0.1-1.1l-0.1-1.1L929.8,47z M39.5,37.7l17.2-2.3c1.2,0,1.9,0.7,2.3,2.2c0.1,0.4,0.2,0.9,0.3,1.6c0,0.7,0.1,1.4,0.1,2.2
		c0,0.8,0,1.6,0,2.4c0,0.8,0,1.4,0,2c0,2.9-0.3,4.8-0.9,5.6s-1.5,1.3-2.6,1.3c-2.2-0.5-4-1-5.5-1.3c-1.5-0.3-2.8-0.5-3.9-0.7
		c-1.1-0.2-2.1-0.2-3-0.3c-0.9,0-1.8,0-2.7,0h-1.3v1.3c0,1,0,1.9,0,2.8c0,0.9,0.1,1.9,0.3,3c0.1,1.1,0.4,2.5,0.7,4
		c0.3,1.6,0.7,3.4,1.2,5.6c0,1.2-0.4,2.1-1.3,2.7c-0.9,0.6-2.7,0.9-5.5,0.9c-0.5,0-1.2,0-1.9,0c-0.8,0-1.5,0-2.3,0
		c-0.8,0-1.5-0.1-2.2-0.1c-0.7-0.1-1.2-0.1-1.5-0.2c-1.4-0.4-2.1-1.2-2.1-2.4L27,50.5h-1.3c-1,0-1.9,0-2.7,0c-0.9,0-1.9,0.1-3,0.3
		c-1.1,0.1-2.4,0.4-3.9,0.7c-1.5,0.3-3.4,0.7-5.5,1.3c-1.2,0-2-0.4-2.6-1.3c-0.6-0.9-0.9-2.8-0.9-5.6c0-0.5,0-1.2,0-2
		c0-0.8,0-1.6,0-2.4c0-0.8,0.1-1.6,0.1-2.2c0-0.7,0.1-1.2,0.2-1.6c0.4-1.4,1.2-2.2,2.3-2.2L27,37.7l-2.2-17.6c0-1.2,0.7-2,2.1-2.4
		c0.4-0.1,0.9-0.2,1.5-0.3c0.7-0.1,1.4-0.1,2.2-0.1c0.8,0,1.6,0,2.3,0c0.8,0,1.4,0,1.9,0c2.8,0,4.7,0.3,5.5,0.9s1.3,1.5,1.3,2.7
		c-0.5,2.2-0.9,4.1-1.2,5.6c-0.3,1.6-0.5,2.9-0.7,4c-0.1,1.1-0.2,2.1-0.3,3c0,0.9,0,1.8,0,2.8V37.7z M0.1,47l0-1.2v-0.3v-1.4v-0.3
		v-0.3v-0.3l0-0.3v-0.3l0-0.3v-0.3l0-0.3v-0.3l0-0.3l0-0.3l0-0.3l0-0.3l0-0.3l0-0.3l0-0.3l0-0.4l0-0.4l0-0.3l0-0.4l0.1-0.4l0.1-0.4
		l0.1-0.4l0.1-0.4l0.1-0.4l0.3-1.1l0.6-1.3l0.8-1.3l1.1-1.2L5,29.6l1.6-0.8l1.6-0.4l1.7-0.1l8.9,1.2l-1.2-9.1l0.1-1.8l0.4-1.7
		l0.8-1.6l1-1.4l1.2-1.1l1.3-0.8l1.2-0.6l1-0.4l0.4-0.1l0.4-0.1l0.4-0.1l0.4-0.1l0.4-0.1l0.3,0l0.3,0l0.4,0l0.3,0l0.3,0l0.3,0l0.3,0
		l0.3,0l0.3,0l0.3,0l0.3,0l0.3,0l0.3,0h0.3h0.3l0.3,0h0.3h0.3h0.3h2l1.2,0l1.2,0.1l1.1,0.1l1.1,0.1l1.1,0.2l1.1,0.3l1.2,0.5l1.2,0.7
		l1.1,0.8l0.9,0.9l0.8,1l0.7,1.2l0.5,1.2l0.3,1.2l0.2,1.2l0.1,1.8l-0.4,1.8l-0.2,0.8L48,24.8l-0.2,0.7l-0.1,0.6l-0.1,0.6l-0.1,0.6
		l-0.1,0.5l-0.1,0.5l-0.1,0.5l-0.1,0.5l0,0.1l9.4-1.2l1.8,0.1l1.6,0.4l1.6,0.8l1.4,1.1l1.1,1.2l0.8,1.3l0.6,1.3l0.3,1l0.1,0.4
		l0.1,0.4l0.1,0.4l0.1,0.4l0.1,0.4l0,0.4l0,0.4l0,0.3l0,0.3l0,0.3l0,0.3l0,0.3l0,0.3l0,0.3l0,0.3l0,0.3l0,0.3v0.3l0,0.3v0.3l0,0.3
		v0.3v0.3v2.3l0,1.2l-0.1,1.2l-0.1,1.1l-0.1,1.1L66,51.6l-0.3,1.2L65.2,54l-0.7,1.3l-0.8,1.1l-0.9,1l-1,0.8l-1.1,0.7l-1.2,0.5
		l-1.2,0.3l-1.2,0.2L55.3,60l-1.7-0.4l-0.7-0.2l-0.7-0.2L51.5,59l-0.6-0.1l-0.6-0.1l-0.6-0.1l-0.5-0.1l-0.5-0.1l-0.5-0.1l-0.5-0.1
		l-0.4-0.1l-0.2,0l0,0.2l0.1,0.5l0.1,0.5l0.1,0.5l0.1,0.5l0.1,0.5l0.1,0.6l0.1,0.6l0.1,0.7l0.2,0.7l0.2,0.7l0.2,0.8l0.4,1.8
		l-0.1,1.8l-0.2,1.2l-0.3,1.2l-0.5,1.2L47,73.3l-0.8,1l-0.9,0.9L44.2,76L43,76.7l-1.2,0.5l-1.2,0.3l-1.1,0.2l-1.1,0.2L37.3,78
		L36.1,78l-1.2,0h-0.2h-2.1h-0.3L32,78h-0.3h-0.3L31,78l-0.3,0h-0.3l-0.3,0l-0.3,0l-0.3,0l-0.3,0l-0.3,0l-0.3,0l-0.3,0l-0.3,0
		l-0.3,0l-0.4,0l-0.4-0.1l-0.4-0.1L26,77.6l-0.4-0.1l-0.4-0.1l-0.4-0.1l-1-0.3l-1.3-0.6l-1.3-0.9l-1.2-1.1l-1-1.4l-0.8-1.6l-0.4-1.7
		l-0.1-1.8l1.2-9.7l-0.1,0l-0.5,0.1l-0.5,0.1l-0.5,0.1l-0.5,0.1l-0.6,0.1l-0.6,0.1L15.1,59l-0.7,0.1l-0.7,0.2L13,59.5L11.2,60
		l-1.8-0.1l-1.2-0.2L7,59.3l-1.2-0.5l-1.1-0.7l-1-0.8l-0.9-0.9L2,55.3L1.3,54l-0.5-1.3l-0.3-1.2l-0.2-1.1l-0.1-1.1l-0.1-1.1L0.1,47z
		 M209.5,90.5h-28.3c-0.1-8.4-2.2-16.8-6.3-25.2c-5.1-10.2-11.8-16.6-20.1-18.9c0,18-0.5,32.7-1.6,44.2h-25.1
		c1.6-15.3,2.5-35.9,2.5-61.7c0-11.8-0.8-20.8-2.5-26.9h25.1c1,9.9,1.6,22.2,1.6,36.9h0.3c5.5-11.4,9.9-19.4,13.4-23.9
		C175.9,4.9,183.9,0,192.7,0c5.8,0,11.3,1.1,16.5,3.3l-5.9,20.1c-4.6-1.7-9.5-2.5-14.9-2.5c-11.3,0-20.3,6.5-26.7,19.3
		c14.8,4.4,26.3,10.7,34.6,19C205.1,68.2,209.5,78.6,209.5,90.5z M315.9,41.3c0,11.1-3.6,21.4-11,31c-7.6,9.9-17.7,17.1-30.3,21.6
		c-3.7-4.1-9.6-8.4-17.6-13.1c-8.4-4.8-14-8.5-16.6-11.2c-4.9-4.9-7.4-11.2-7.4-18.7c0-11,3.7-21.3,11.1-31
		c7.7-10.1,17.8-17.2,30.3-21.5c3.7,4,9.6,8.3,17.7,12.9c8.4,4.7,13.9,8.5,16.6,11.2C313.5,27.5,315.9,33.7,315.9,41.3z M298.8,63.3
		c0-8.2-2.3-15.3-6.9-21.3c-3.8-5.1-10.2-10.5-19.1-16.4c-5.1-3.3-7.8-5.1-8.2-5.4c-3.1-2.1-5.5-4.2-7.3-6.1
		c-4.6,3.7-6.8,8.7-6.8,14.8c0,9,2,16.4,6.1,22.2c3.8,5.5,10.5,11,20,16.6c5.1,3,7.8,4.6,8.1,4.8c3,1.9,5.4,3.8,7.1,5.7
		C296.4,73.8,298.8,68.8,298.8,63.3z M425.3,15.3c0,7.3-6.5,14.9-19.4,22.8c-8.8,5.4-19.5,10.4-32,15c0,13,0.7,25.4,2.2,37.4h-25.9
		c-1.1-14.1-1.7-29.1-1.7-45.2c0-12.2,3.3-22.2,9.8-30.2C365.9,5.7,377.1,1,391.7,1c10,0,17.3,0.6,21.8,1.8
		C421.4,4.8,425.3,9,425.3,15.3z M399.6,18c0-3.9-0.5-6.7-1.5-8.5c-1.5-2.8-4.4-4.1-8.6-4.1c-5.6,0-9.9,3.6-12.6,10.8
		c-2,5-2.9,10.5-2.9,16.4v16.6C391,41.2,399.6,30.8,399.6,18z M532.8,55.5c0,10.5-5.5,19.4-16.6,26.7c-10.5,7-22.7,10.5-36.3,10.5
		c0-5.6-2.8-11-8.4-16.1c-5.2-4.5-10.4-9-15.6-13.6c-5.6-6.1-8.5-13-8.5-21c0-12.5,3.6-22.4,10.9-29.7c8-8.1,19.8-12.3,35.4-12.3
		c11.8,0,21.3,3.2,28.6,9.6c7,6.2,10.5,13.9,10.5,23.3h-24.4l0.1-6.9c0.2-14.4-4.8-21.6-15.2-21.6c-12.5,0-18.7,13.6-18.7,41
		c0,5,1.7,12.2,5,21.6c3.3,9.4,5.1,16.6,5.2,21.4c10.1,0.2,16.9-3.6,20.4-11.4c2.1-4.6,3.2-11.7,3.2-21.5H532.8z M656.7,3.3
		l-5.9,20.1c-3.7-1.7-7.7-2.5-11.9-2.5c-9.7,0-17.4,8.4-22.9,25.1c-4,12.2-6,23.7-6,34.7c0,18.8,3.8,35,11.2,48.6l-21.4,5.9
		c0-15.6,0.8-30.5,2.3-44.6h-24.5c0-27.9-7.8-57.5-23.4-88.7h28.5c11.4,30.4,17.1,58.5,17.1,84.2h2.8c2.1-18.5,5.4-34.9,9.9-49.2
		C620.1,12.3,629.9,0,641.6,0C646.9,0,651.9,1.1,656.7,3.3z M767.1,90.5h-24c-1.7-9.1-2.6-23.3-2.6-42.5c-7.9-3.2-18.6-4.9-32-4.9
		c0,16.8-0.5,32.6-1.6,47.3h-25.4c1.6-15.3,2.5-35.2,2.5-59.6c0-12.3-0.7-22-2.1-28.8h24.4c1.5,7.2,2.3,19.4,2.3,36.6
		c13,0,23.7,1.6,32,4.8V32.4c0-11.8-0.6-21.9-1.9-30.3h24.9c1,8,1.5,17.8,1.5,29.5c0,2.7,0,6.7-0.1,12.1c-0.1,5.4-0.1,9.4-0.1,12.1
		C764.8,69.6,765.5,81.2,767.1,90.5z M892.4,72.8c0,7.6-3.4,12.7-10.1,15.2c-4.4,1.6-12.1,2.5-23.1,2.5h-55
		c1.6-15.3,2.4-31.5,2.4-48.5v-9.2c0-12.8-0.8-23.1-2.4-30.9h25.1c1.2,12.9,1.9,25.2,1.9,36.9c11.2,0.1,23.9,3.6,38,10.5
		C884.6,56.8,892.4,64.7,892.4,72.8z M863.2,72.8c0-15.7-10.7-25.7-32-30c0,14.4-0.5,28.8-1.6,43.2h14.3
		C856.7,86.1,863.2,81.6,863.2,72.8z"/>
</g>
<g id="cdr_x5F_layer3">
</g>
<g id="cdr_x5F_layer4">
</g>
<g id="MasterLayer_1">
</g>
</svg>
