<svg width="50" height="65" viewBox="0 0 50 65" version="1.1" xmlns="http://www.w3.org/2000/svg" xmlns:xlink="http://www.w3.org/1999/xlink">
<path id="path0_fill" d="M 25 0C 11.2154 0 0 11.1059 0 24.7559C 0 30.1577 1.72308 35.2904 4.98718 39.5967L 23.459 64.2321C 23.5051 64.2917 23.5756 64.3146 23.6269 64.3679C 24.55 65.3467 25.8821 65.1004 26.5397 64.2321C 31.859 57.2039 41.609 44.0781 45.3577 39.127C 45.3577 39.127 45.359 39.1231 45.3603 39.1206L 45.3833 39.0901C 48.4038 34.888 50 29.9317 50 24.7559C 50 11.1059 38.7846 0 25 0ZM 25 38.1113C 17.5782 38.1113 11.5128 32.1052 11.5128 24.7559C 11.5128 17.4065 17.5782 11.4004 25 11.4004C 32.4218 11.4004 38.4872 17.4065 38.4872 24.7559C 38.4872 32.1052 32.4218 38.1113 25 38.1113Z"/>
</svg>