<?xml version="1.0" encoding="utf-8"?>
<!-- Generator: Adobe Illustrator 19.0.0, SVG Export Plug-In . SVG Version: 6.00 Build 0)  -->
<svg version="1.1" id="Слой_1" xmlns="http://www.w3.org/2000/svg" xmlns:xlink="http://www.w3.org/1999/xlink" x="0px" y="0px"
	 viewBox="0 0 514.8 236.5" enable-background="new 0 0 514.8 236.5" xml:space="preserve">
<path id="XMLID_16_" d="M506.4,116.9L506.4,116.9l-35.3-13.5l-35.3-13.4l-17.7-6.7l-17.6-6.7l-8.8-3.4l-4.4-1.7l-2.2-0.9l-2.1-0.9
	c-5.9-2.4-11.5-4.8-17.2-7.3c-5.8-2.5-11.5-5-17.3-7.5l-17.3-7.7l-34.5-15.5l-69-31.1l-0.5-0.2c-2.5-1.1-5.6-0.8-7.8,1.2
	c-3,2.7-3.3,7.3-0.6,10.3l23.7,26.6c7.9,8.9,15.9,17.7,23.8,26.5l11.9,13.2l12,13.2c4,4.4,8,8.8,12,13.1c4,4.4,8.1,8.7,12.1,13.1
	c0.4,0.5,1.1,0.5,1.7,0.2c0.6-0.4,0.7-1.2,0.3-1.8c-3.5-4.8-7.1-9.6-10.6-14.3c-3.5-4.8-7.1-9.5-10.7-14.3l-10.7-14.2l-10.8-14.2
	c-7.2-9.4-14.4-18.9-21.6-28.3l-1.1-1.4c1.3,0.7,2.7,1.4,4,2.1l16.8,8.7l16.9,8.6c11.3,5.7,22.6,11.4,33.9,17l17,8.4
	c5.7,2.8,11.4,5.5,17.1,8.3c5.8,2.7,11.6,5.5,17.4,8.1l8.8,3.9l8.7,3.8c5.8,2.6,11.6,5,17.5,7.5l17.5,7.4l17.6,7.2l16,6.4l-15.6,4.5
	c-6,1.8-11.9,3.6-17.9,5.5c-6,1.9-11.9,3.8-17.9,5.7l-8.9,3l-9,3.1l-8.8,3.2l-8.9,3.3c-5.8,2.3-11.7,4.5-17.5,6.8l-17.3,7l-17.3,7
	l-34.4,14.2c-8.5,3.5-17,7.1-25.4,10.6l64.8-66l0.2-0.2c1.5-1.5,2.4-3.6,2.3-5.9c-0.1-4.5-3.8-8.1-8.3-8l-79.6,1.5l-39.8,0.8
	l-39.8,0.9l-79.6,1.8l-19.9,0.4l-19.9,0.5l-39.8,1c-0.7,0-1.2,0.6-1.2,1.2c0,0.7,0.5,1.3,1.2,1.3l39.8,1l19.9,0.5l19.9,0.4l79.6,1.8
	l39.8,0.9l39.8,0.8l59.9,1.1l-85.6,84.2c-2.6,2.6-3.6,6.6-2.1,10.2c1.9,4.8,7.4,7.1,12.2,5.2l0.2-0.1c22.9-9.3,46-18.5,69-27.6
	l34.6-13.5c11.5-4.5,23.1-8.9,34.6-13.1c5.8-2.2,11.6-4.2,17.3-6.3l8.6-3l8.8-2.8l8.7-2.6l8.8-2.6c5.9-1.7,11.8-3.3,17.8-4.9
	c11.9-3.2,23.8-6.3,35.7-9.3l17.9-4.6l17.9-4.5c3.9-1,7.4-3.9,9-8C516.5,127,513.1,119.5,506.4,116.9z"/>
<path id="XMLID_27_" d="M308.1,149.2c0,0-74-14-299.5-20c225.3-4,299.5-20,299.5-20c11-0.7,20.6,7.6,21.3,18.7
	c0.7,11-7.6,20.6-18.7,21.3C309.9,149.3,309,149.3,308.1,149.2z"/>
</svg>
