<svg width="515" height="237" viewBox="0 0 515 237" version="1.1" xmlns="http://www.w3.org/2000/svg" xmlns:xlink="http://www.w3.org/1999/xlink">
<path id="path0_fill" d="M 8.32924 119.766L 43.6292 133.266L 96.6292 153.366L 114.229 160.066L 127.429 165.166L 129.629 166.066L 131.729 166.966C 137.629 169.366 143.229 171.766 148.929 174.266C 154.729 176.766 160.429 179.266 166.229 181.766L 183.529 189.466L 218.029 204.966L 287.029 236.066L 287.529 236.266C 290.029 237.366 293.129 237.066 295.329 235.066C 298.329 232.366 298.629 227.766 295.929 224.766L 272.229 198.166C 264.329 189.266 256.329 180.466 248.429 171.666L 236.529 158.466L 224.529 145.266C 220.529 140.866 216.529 136.466 212.529 132.166C 208.529 127.766 204.429 123.466 200.429 119.066C 200.029 118.566 199.329 118.566 198.729 118.866C 198.129 119.266 198.029 120.066 198.429 120.666C 201.929 125.466 205.529 130.266 209.029 134.966C 212.529 139.766 216.129 144.466 219.729 149.266L 230.429 163.466L 241.229 177.666C 248.429 187.066 255.629 196.566 262.829 205.966L 263.929 207.366C 262.629 206.666 261.229 205.966 259.929 205.266L 243.129 196.566L 226.229 187.966C 214.929 182.266 203.629 176.566 192.329 170.966L 175.329 162.566C 169.629 159.766 163.929 157.066 158.229 154.266C 152.429 151.566 146.629 148.766 140.829 146.166L 132.029 142.266L 123.329 138.466C 117.529 135.866 111.729 133.466 105.829 130.966L 88.3292 123.566L 70.7292 116.366L 54.7292 109.966L 70.3292 105.466C 76.3292 103.666 82.2292 101.866 88.2292 99.9658C 94.2292 98.0658 100.129 96.1658 106.129 94.2658L 115.029 91.2658L 124.029 88.1658L 132.829 84.9658L 141.729 81.6658C 147.529 79.3658 153.429 77.1658 159.229 74.8658L 193.829 60.8658L 228.229 46.6658C 236.729 43.1658 245.229 39.5658 253.629 36.0658L 188.829 102.066L 188.629 102.266C 187.129 103.766 186.229 105.866 186.329 108.166C 186.429 112.666 190.129 116.266 194.629 116.166L 274.229 114.666L 314.029 113.866L 433.429 111.166L 453.329 110.766L 513.029 109.266C 513.729 109.266 514.229 108.666 514.229 108.066C 514.229 107.366 513.729 106.766 513.029 106.766L 453.329 105.266L 433.429 104.866L 314.029 102.166L 274.229 101.366L 214.329 100.266L 299.929 16.0658C 302.529 13.4658 303.529 9.4658 302.029 5.8658C 300.129 1.0658 294.629 -1.23419 289.829 0.665806L 289.629 0.765812C 266.729 10.0658 243.629 19.2658 220.629 28.3658L 186.029 41.8658C 174.529 46.3658 162.929 50.7658 151.429 54.9658C 145.629 57.1658 139.829 59.1658 134.129 61.2658L 125.529 64.2658L 116.729 67.0658L 108.029 69.6658L 99.2292 72.2658C 93.3292 73.9658 87.4292 75.5658 81.4292 77.1658C 69.5292 80.3658 57.6292 83.4658 45.7292 86.4658L 27.8292 91.0658L 9.92924 95.5658C 6.02924 96.5658 2.52924 99.4658 0.929243 103.566C -1.77076 109.666 1.62924 117.166 8.32924 119.766Z"/>
<path id="path1_fill" d="M 206.629 87.4658C 206.629 87.4658 280.629 101.466 506.129 107.466C 280.829 111.466 206.629 127.466 206.629 127.466C 195.629 128.166 186.029 119.866 185.329 108.766C 184.629 97.7658 192.929 88.1658 204.029 87.4658C 204.829 87.3658 205.729 87.3658 206.629 87.4658Z"/>
</svg>
